HIERARCHY
ROOT Hips
{
  OFFSET 0.000000 0.000000 0.000000
  CHANNELS 6 Xposition Yposition Zposition Zrotation Xrotation Yrotation
  JOINT LeftUpLeg
  {
    OFFSET 8.642590 1.953980 -2.388350
    CHANNELS 3 Zrotation Xrotation Yrotation
    JOINT LeftLeg
    {
      OFFSET 43.770199 0.000000 0.000000
      CHANNELS 3 Zrotation Xrotation Yrotation
      JOINT LeftFoot
      {
        OFFSET 40.623798 0.000000 0.000000
        CHANNELS 3 Zrotation Xrotation Yrotation
        JOINT LeftToeBase
        {
          OFFSET 12.724200 0.000000 0.000000
          CHANNELS 3 Zrotation Xrotation Yrotation
          End Site
          {
            OFFSET 0.000000 0.000000 0.000000
          }
        }
      }
    }
  }
  JOINT RightUpLeg
  {
    OFFSET -8.224900 1.953980 -2.593360
    CHANNELS 3 Zrotation Xrotation Yrotation
    JOINT RightLeg
    {
      OFFSET 43.565300 0.000000 0.000000
      CHANNELS 3 Zrotation Xrotation Yrotation
      JOINT RightFoot
      {
        OFFSET 40.623798 0.000000 0.000000
        CHANNELS 3 Zrotation Xrotation Yrotation
        JOINT RightToeBase
        {
          OFFSET 12.724200 0.000000 0.000000
          CHANNELS 3 Zrotation Xrotation Yrotation
          End Site
          {
            OFFSET 0.000000 0.000000 0.000000
          }
        }
      }
    }
  }
  JOINT Spine
  {
    OFFSET 0.165834 0.877140 6.613490
    CHANNELS 3 Zrotation Xrotation Yrotation
    JOINT Spine1
    {
      OFFSET 7.389630 0.000017 0.000000
      CHANNELS 3 Zrotation Xrotation Yrotation
      JOINT Spine2
      {
        OFFSET 11.944500 0.000011 0.000000
        CHANNELS 3 Zrotation Xrotation Yrotation
        JOINT Spine3
        {
          OFFSET 14.725400 0.000042 0.000000
          CHANNELS 3 Zrotation Xrotation Yrotation
          JOINT Spine4
          {
            OFFSET 10.967900 0.000000 0.000000
            CHANNELS 3 Zrotation Xrotation Yrotation
            JOINT RightShoulder
            {
              OFFSET 2.466160 -1.665300 3.696510
              CHANNELS 3 Zrotation Xrotation Yrotation
              JOINT RightArm
              {
                OFFSET 13.001200 0.000000 0.000000
                CHANNELS 3 Zrotation Xrotation Yrotation
                JOINT RightForeArm
                {
                  OFFSET 28.784800 0.000015 0.000000
                  CHANNELS 3 Zrotation Xrotation Yrotation
                  JOINT RightHand
                  {
                    OFFSET 26.568800 0.000015 0.000000
                    CHANNELS 3 Zrotation Xrotation Yrotation
                    End Site
                    {
                      OFFSET 0.000000 0.000000 0.000000
                    }
                  }
                }
              }
            }
            JOINT LeftShoulder
            {
              OFFSET 2.380340 -1.292750 -3.752300
              CHANNELS 3 Zrotation Xrotation Yrotation
              JOINT LeftArm
              {
                OFFSET 16.318199 0.000061 0.000000
                CHANNELS 3 Zrotation Xrotation Yrotation
                JOINT LeftForeArm
                {
                  OFFSET 27.090099 0.000000 0.000000
                  CHANNELS 3 Zrotation Xrotation Yrotation
                  JOINT LeftHand
                  {
                    OFFSET 24.545099 0.000015 0.000000
                    CHANNELS 3 Zrotation Xrotation Yrotation
                    End Site
                    {
                      OFFSET 0.000000 0.000000 0.000000
                    }
                  }
                }
              }
            }
            JOINT Neck
            {
              OFFSET 5.022600 -0.026634 0.000000
              CHANNELS 3 Zrotation Xrotation Yrotation
              JOINT Head
              {
                OFFSET 6.693640 0.000029 0.000000
                CHANNELS 3 Zrotation Xrotation Yrotation
                End Site
                {
                  OFFSET 0.000000 0.000000 0.000000
                }
              }
            }
          }
        }
      }
    }
  }
}
MOTION
Frames: 5
Frame Time: 0.041667
0.000000 94.275002 0.000000 151.018997 -67.667900 145.462997 -166.641006 -20.490101 96.882797 -6.495760 28.034300 -3.139240 69.648201 7.225800 0.643034 18.667801 -8.581710 8.553860 172.102005 -26.860100 88.264198 -3.313360 3.940410 -1.179470 69.598198 -4.128580 0.545099 23.947100 0.847750 4.680910 -2.440260 7.363920 -87.146896 12.209600 -3.500020 6.083910 0.528421 -3.229400 6.231370 -21.968000 -5.164750 4.754420 -1.955360 -5.164750 4.754410 61.799599 -44.412998 -145.100998 46.299099 -4.092550 11.346200 -6.017020 -24.659201 -13.921800 -19.250900 0.038171 -14.213400 -80.699898 -10.232200 88.791496 -57.194401 -6.029480 19.212500 12.351700 30.170200 -20.263100 0.748833 -0.289898 -11.677800 -17.290400 7.747850 -32.650700 -3.123240 7.251920 18.852200
-0.702297 94.300003 -0.117004 152.274002 -69.803802 146.373001 -168.332001 -19.817900 95.010300 -5.624820 24.758400 -2.268540 69.125099 6.898680 0.212596 19.842800 -7.882790 8.770050 171.649994 -23.901800 87.609398 -5.476840 1.726480 -0.941774 70.237396 -4.276170 0.208157 24.004700 0.876595 4.413740 -2.354060 7.305820 -87.369003 12.322800 -3.430470 5.640080 0.643512 -3.179320 5.785030 -21.863600 -4.965450 4.351130 -1.850960 -4.965440 4.351130 64.511398 -43.126801 -142.171005 46.082199 -5.499140 10.031700 -2.400920 -23.268101 -14.196300 -21.829599 -0.076549 -11.750500 -80.303001 -13.030600 90.295502 -56.018799 -4.433510 17.522499 12.177500 29.193001 -20.607500 -1.886950 -0.119584 -11.352600 -15.912300 7.419970 -29.946699 -2.777720 7.372850 17.412100
-1.594099 94.291000 -0.482025 154.533997 -73.242599 148.479004 -170.259003 -17.109301 92.957100 -6.423220 20.723499 -1.495160 69.077103 6.964520 0.202695 21.367800 -7.111450 9.463420 171.496994 -19.279600 87.246002 -8.432370 -1.541530 -0.703062 70.951103 -4.636400 -0.709574 23.951401 0.876183 4.509560 -2.274510 7.200770 -87.729599 12.529600 -3.437870 4.933640 0.853274 -3.217700 5.079780 -21.671900 -4.760720 3.673860 -1.659230 -4.760720 3.673860 67.834198 -40.280602 -139.231003 45.625000 -7.695340 7.627300 3.089440 -26.226101 -13.799500 -26.514200 -0.396934 -9.788320 -79.317101 -17.964600 93.316498 -53.148399 -2.585890 15.219600 11.324400 27.390900 -20.169399 -1.160300 -0.173208 -11.976200 -13.606500 7.367640 -24.397600 -2.970210 7.811920 14.438000
-2.580997 94.235001 -1.036011 162.291000 -76.148499 156.156998 -172.046997 -15.127500 91.196800 -7.300100 15.752500 -0.429560 68.988899 6.994810 -0.280122 22.101299 -7.450390 11.887100 171.001007 -15.259600 86.672897 -11.608000 -5.336020 -0.210938 72.089798 -5.370210 -1.142100 23.209400 1.025490 4.931500 -2.026050 7.253300 -88.176399 12.412900 -3.159310 4.003130 0.739175 -2.980220 4.138090 -21.798000 -4.215840 2.869100 -1.785370 -4.215820 2.869100 72.023300 -36.364799 -135.375000 46.213902 -7.590480 6.402670 2.314910 -27.601700 -15.747500 -26.431700 -0.754041 -8.341290 -78.109200 -24.398600 96.339996 -49.131500 -0.646154 12.282000 10.527100 24.382999 -20.057301 -2.841570 -0.050106 -13.186200 -9.696450 6.406450 -18.403700 -5.043670 7.112810 12.550500
-3.687798 93.818001 -1.804016 170.117996 -77.155403 164.095993 -173.544006 -13.845300 90.170403 -8.654290 11.571000 0.863054 68.687897 8.353500 -0.324437 24.067801 -6.654340 13.658200 170.285995 -12.088200 86.209900 -15.871000 -7.995380 0.711222 74.241600 -6.432460 -0.910068 22.606600 0.932623 6.404350 -1.848320 7.554700 -88.654404 11.800400 -3.043400 3.005450 0.129268 -2.908240 3.136410 -22.420700 -3.805710 1.951590 -2.408030 -3.805710 1.951590 76.098801 -31.980900 -131.541000 46.249001 -9.541200 3.271260 2.604830 -25.678499 -14.960900 -26.915100 -0.641825 -8.302230 -76.511497 -31.799000 99.522697 -44.026699 0.946623 8.969810 10.526900 22.951500 -20.787001 -3.420810 -0.002082 -14.014700 -5.392170 6.224110 -10.969500 -5.468210 6.945530 9.255110
